o GallowsBevel
v 45 5 25.012820000000033
v 165 5 25.012820000000033
v 170 0 20.012820000000033
v 40 0 20.012820000000033
v 165 5 205.01282000000003
v 170 0 200.01282000000003
v 205 5 205.01282000000003
v 210 0 200.01282000000003
v 205 5 225.01282000000003
v 210 0 230.01282000000003
v 100 0 230.01282000000003
v 105 5 225.01282000000003
v 105 5 205.01282000000003
v 100 0 200.01282000000003
v 145 5 205.01282000000003
v 140 0 200.01282000000003
v 145 5 118.35657000000003
v 140 0 120.01282000000003
v 90 5 45.012820000000033
v 87.5 0 50.012820000000033
v 70 0 50.012820000000033
v 65 5 45.012820000000033
v 65 5 65.012820000000033
v 70 0 70.012820000000033
v 40 0 70.012820000000033
v 45 5 65.012820000000033
v 125 0 50.012820000000033
v 140 0 50.012820000000033
v 145 5 45.012820000000033
v 115 5 45.012820000000033
v 140 0 70.012820000000033
v 145 5 85.012820000000033
vn 0 600 -600
vn 900 900 0
vn 0 200 -200
vn 150 150 0
vn 0 550 550
vn -100 100 0
vn -433.28125 433.28125 0
vn -366.71875 457.8125 275
vn 0 87.5 87.5
vn 100 100 0
vn 0 150 150
vn -200 200 0
vn 0 75 75
vn 200 250 -150
vt 0.029411764705882353 0.023809523809523808
vt 0.73529411764705888 0.023809523809523808
vt 0.76470588235294112 0
vt 0 0
vt 0.73529411764705888 0.88095238095238093
vt 0.76470588235294112 0.8571428571428571
vt 0.97058823529411764 0.88095238095238093
vt 1 0.8571428571428571
vt 0.97058823529411764 0.97619047619047616
vt 1 1
vt 0.35294117647058826 1
vt 0.38235294117647056 0.97619047619047616
vt 0.38235294117647056 0.88095238095238093
vt 0.35294117647058826 0.8571428571428571
vt 0.61764705882352944 0.88095238095238093
vt 0.58823529411764708 0.8571428571428571
vt 0.61764705882352944 0.46830357142857143
vt 0.58823529411764708 0.47619047619047616
vt 0.29411764705882354 0.11904761904761904
vt 0.27941176470588236 0.14285714285714285
vt 0.17647058823529413 0.14285714285714285
vt 0.14705882352941177 0.11904761904761904
vt 0.14705882352941177 0.21428571428571427
vt 0.17647058823529413 0.23809523809523808
vt 0 0.23809523809523808
vt 0.029411764705882353 0.21428571428571427
vt 0.5 0.14285714285714285
vt 0.58823529411764708 0.14285714285714285
vt 0.61764705882352944 0.11904761904761904
vt 0.44117647058823528 0.11904761904761904
vt 0.58823529411764708 0.23809523809523808
vt 0.61764705882352944 0.30952380952380953
g GallowsBevel
f 1/1/1 2/2/1 3/3/1 4/4/1
f 2/2/2 5/5/2 6/6/2 3/3/2
f 5/5/3 7/7/3 8/8/3 6/6/3
f 9/9/4 10/10/4 8/8/4 7/7/4
f 11/11/5 10/10/5 9/9/5 12/12/5
f 11/11/6 12/12/6 13/13/6 14/14/6
f 13/13/3 15/15/3 16/16/3 14/14/3
f 16/16/7 15/15/7 17/17/7 18/18/7
f 18/18/8 17/17/8 19/19/8 20/20/8
f 21/21/9 20/20/9 19/19/9 22/22/9
f 23/23/10 24/24/10 21/21/10 22/22/10
f 25/25/11 24/24/11 23/23/11 26/26/11
f 25/25/12 26/26/12 1/1/12 4/4/12
f 27/27/13 28/28/13 29/29/13 30/30/13
f 31/31/12 32/32/12 29/29/12 28/28/12
f 30/30/14 32/32/14 31/31/14 27/27/14
