o GallowsFront
v 65 5 45.012820000000033
v 145 5 45.012820000000033
v 165 5 25.012820000000033
v 45 5 25.012820000000033
v 45 5 65.012820000000033
v 65 5 65.012820000000033
v 145 5 118.35657000000003
v 145 5 85.012820000000033
v 115 5 45.012820000000033
v 90 5 45.012820000000033
v 145 5 205.01282000000003
v 165 5 205.01282000000003
v 105 5 225.01282000000003
v 205 5 225.01282000000003
v 205 5 205.01282000000003
v 105 5 205.01282000000003
vn 0 1600 0
vn 0 400 0
vn 0 1000.3125 0
vn 0 3600 0
vn 0 2000 0
vt 0.14705882352941177 0.11904761904761904
vt 0.61764705882352944 0.11904761904761904
vt 0.73529411764705888 0.023809523809523808
vt 0.029411764705882353 0.023809523809523808
vt 0.029411764705882353 0.21428571428571427
vt 0.14705882352941177 0.21428571428571427
vt 0.61764705882352944 0.46830357142857143
vt 0.61764705882352944 0.30952380952380953
vt 0.44117647058823528 0.11904761904761904
vt 0.29411764705882354 0.11904761904761904
vt 0.61764705882352944 0.88095238095238093
vt 0.73529411764705888 0.88095238095238093
vt 0.38235294117647056 0.97619047619047616
vt 0.97058823529411764 0.97619047619047616
vt 0.97058823529411764 0.88095238095238093
vt 0.38235294117647056 0.88095238095238093
g GallowsFront
f 1/1/1 2/2/1 3/3/1 4/4/1
f 5/5/2 6/6/2 1/1/2 4/4/2
f 7/7/3 8/8/3 9/9/3 10/10/3
f 11/11/4 12/12/4 3/3/4 2/2/4
f 13/13/5 14/14/5 15/15/5 16/16/5
