o GallowsBevel
v 45 5 25.012820000000033
v 165 5 25.012820000000033
v 170 0 20.012820000000033
v 40 0 20.012820000000033
v 165 5 205.01282000000003
v 170 0 200.01282000000003
v 205 5 205.01282000000003
v 210 0 200.01282000000003
v 205 5 225.01282000000003
v 210 0 230.01282000000003
v 100 0 230.01282000000003
v 105 5 225.01282000000003
v 105 5 205.01282000000003
v 100 0 200.01282000000003
v 145 5 205.01282000000003
v 140 0 200.01282000000003
v 145 5 118.35657000000003
v 140 0 120.01282000000003
v 90 5 45.012820000000033
v 87.5 0 50.012820000000033
v 70 0 50.012820000000033
v 65 5 45.012820000000033
v 65 5 65.012820000000033
v 70 0 70.012820000000033
v 40 0 70.012820000000033
v 45 5 65.012820000000033
v 125 0 50.012820000000033
v 140 0 50.012820000000033
v 145 5 45.012820000000033
v 115 5 45.012820000000033
v 140 0 70.012820000000033
v 145 5 85.012820000000033
vn 0 600 -600
vn 900 900 0
vn 0 200 -200
vn 150 150 0
vn 0 550 550
vn -100 100 0
vn -433.28125 433.28125 0
vn -366.71875 457.8125 275
vn 0 87.5 87.5
vn 100 100 0
vn 0 150 150
vn -200 200 0
vn 0 75 75
vn 200 250 -150
g GallowsBevel
f 1//1 2//1 3//1 4//1
f 2//2 5//2 6//2 3//2
f 5//3 7//3 8//3 6//3
f 9//4 10//4 8//4 7//4
f 11//5 10//5 9//5 12//5
f 11//6 12//6 13//6 14//6
f 13//3 15//3 16//3 14//3
f 16//7 15//7 17//7 18//7
f 18//8 17//8 19//8 20//8
f 21//9 20//9 19//9 22//9
f 23//10 24//10 21//10 22//10
f 25//11 24//11 23//11 26//11
f 25//12 26//12 1//12 4//12
f 27//13 28//13 29//13 30//13
f 31//12 32//12 29//12 28//12
f 30//14 32//14 31//14 27//14
