o StickFigure
v 1.7 0 5
v 1.6935309867559674 0 5.1481647626710192
v 1.9923893961834911 0.2 5.1743114854953163
v 2 0.2 5
v 2.2912478056110146 0 5.2004582083196134
v 2.3 0 5
v 1.6741731801207536 0 5.2952019020337815
v 1.969615506024416 0.2 5.3472963553338611
v 2.2650578319280781 0 5.39939080863394
v 1.6420739046914161 0 5.4399923766742848
v 1.9318516525781366 0.2 5.5176380902050415
v 2.2216294004648569 0 5.5952838037357981
v 1.5974774553360442 0 5.5814342436536366
v 1.8793852415718169 0.2 5.6840402866513378
v 2.1612930278075893 0 5.786646329649038
v 1.5407232379623048 0 5.7184510449591892
v 1.8126155740732999 0.2 5.8452365234813985
v 2.0845079101842945 0 5.9720220020036088
v 1.4722431864335457 0 5.85
v 1.7320508075688774 0.2 6
v 1.9918584287042089 0 6.1499999999999995
v 1.3925584752912861 0 5.9750799417967784
v 1.6383040885779836 0.2 6.1471528727020921
v 1.8840497018646809 0 6.3192258036074058
v 1.3022755533022625 0 6.092738936467117
v 1.532088886237956 0.2 6.2855752193730785
v 1.7619022191736493 0 6.47841150227904
v 1.2020815280171309 0 6.20208152801713
v 1.4142135623730952 0.2 6.4142135623730949
v 1.6263455967290592 0 6.6263455967290588
v 1.092738936467117 0 6.3022755533022625
v 1.2855752193730787 0.2 6.5320888862379558
v 1.4784115022790405 0 6.7619022191736491
v 0.97507994179677848 0 6.3925584752912865
v 1.1471528727020923 0.2 6.6383040885779838
v 1.319225803607406 0 6.8840497018646811
v 0.8500000000000002 0 6.4722431864335457
v 1.0000000000000002 0.2 6.7320508075688767
v 1.1500000000000001 0 6.9918584287042087
v 0.718451044959189 0 6.5407232379623048
v 0.84523652348139888 0.2 6.8126155740733
v 0.97202200200360866 0 7.0845079101842945
v 0.58143424365363694 0 6.597477455336044
v 0.68404028665133765 0.2 6.8793852415718169
v 0.78664632964903825 0 7.1612930278075888
v 0.43999237667428526 0 6.6420739046914159
v 0.51763809020504148 0.2 6.9318516525781364
v 0.5952838037357977 0 7.2216294004648569
v 0.29520190203378172 0 6.6741731801207536
v 0.34729635533386083 0.2 6.9696155060244163
v 0.39939080863393994 0 7.2650578319280781
v 0.14816476267101883 0 6.6935309867559676
v 0.17431148549531628 0.2 6.9923893961834906
v 0.2004582083196137 0 7.2912478056110146
v 1.0409154007490206E-16 0 6.7
v 1.2246063538223773E-16 0.2 7
v 1.4082973068957338E-16 0 7.3
v -0.148164762671019 0 6.6935309867559676
v -0.17431148549531647 0.2 6.9923893961834906
v -0.20045820831961392 0 7.2912478056110146
v -0.29520190203378149 0 6.6741731801207536
v -0.34729635533386061 0.2 6.9696155060244163
v -0.39939080863393966 0 7.2650578319280781
v -0.43999237667428542 0 6.6420739046914159
v -0.5176380902050417 0.2 6.9318516525781364
v -0.59528380373579792 0 7.2216294004648569
v -0.58143424365363683 0 6.597477455336044
v -0.68404028665133743 0.2 6.8793852415718169
v -0.786646329649038 0 7.16129302780759
v -0.71845104495918888 0 6.5407232379623048
v -0.84523652348139866 0.2 6.8126155740733
v -0.97202200200360833 0 7.0845079101842945
v -0.84999999999999964 0 6.4722431864335457
v -0.99999999999999956 0.2 6.7320508075688776
v -1.1499999999999995 0 6.9918584287042087
v -0.97507994179677793 0 6.3925584752912865
v -1.1471528727020917 0.2 6.6383040885779838
v -1.3192258036074054 0 6.8840497018646811
v -1.092738936467117 0 6.3022755533022625
v -1.2855752193730787 0.2 6.5320888862379558
v -1.4784115022790405 0 6.7619022191736491
v -1.2020815280171306 0 6.2020815280171311
v -1.4142135623730949 0.2 6.4142135623730949
v -1.626345596729059 0 6.62634559672906
v -1.3022755533022623 0 6.092738936467117
v -1.5320888862379558 0.2 6.2855752193730794
v -1.7619022191736491 0 6.4784115022790409
v -1.3925584752912856 0 5.9750799417967784
v -1.6383040885779832 0.2 6.147152872702093
v -1.8840497018646805 0 6.3192258036074067
v -1.4722431864335457 0 5.85
v -1.7320508075688774 0.2 6
v -1.9918584287042089 0 6.1499999999999995
v -1.5407232379623048 0 5.7184510449591892
v -1.8126155740732999 0.2 5.8452365234813985
v -2.0845079101842945 0 5.9720220020036088
v -1.597477455336044 0 5.5814342436536375
v -1.8793852415718166 0.2 5.6840402866513378
v -2.1612930278075888 0 5.786646329649038
v -1.6420739046914159 0 5.4399923766742857
v -1.9318516525781364 0.2 5.5176380902050424
v -2.2216294004648569 0 5.5952838037357981
v -1.6741731801207536 0 5.2952019020337815
v -1.969615506024416 0.2 5.34729635533386
v -2.2650578319280781 0 5.39939080863394
v -1.6935309867559674 0 5.14816476267102
v -1.9923893961834911 0.2 5.1743114854953172
v -2.2912478056110146 0 5.2004582083196151
v -1.7 0 5
v -2 0.2 5
v -2.3 0 5
v -1.6935309867559674 0 4.8518352373289817
v -1.9923893961834911 0.2 4.8256885145046837
v -2.2912478056110146 0 4.7995417916803866
v -1.6741731801207536 0 4.7047980979662185
v -1.969615506024416 0.2 4.6527036446661389
v -2.2650578319280781 0 4.60060919136606
v -1.6420739046914163 0 4.5600076233257152
v -1.9318516525781369 0.2 4.4823619097949594
v -2.2216294004648574 0 4.4047161962642036
v -1.5974774553360442 0 4.4185657563463634
v -1.8793852415718169 0.2 4.3159597133486631
v -2.1612930278075893 0 4.213353670350962
v -1.540723237962305 0 4.2815489550408117
v -1.8126155740733 0.2 4.1547634765186015
v -2.0845079101842949 0 4.0279779979963921
v -1.4722431864335457 0 4.1499999999999995
v -1.7320508075688772 0.2 4
v -1.9918584287042087 0 3.8499999999999996
v -1.3925584752912863 0 4.0249200582032216
v -1.638304088577984 0.2 3.8528471272979083
v -1.8840497018646816 0 3.6807741963925946
v -1.3022755533022625 0 3.907261063532883
v -1.532088886237956 0.2 3.7144247806269215
v -1.7619022191736493 0 3.52158849772096
v -1.2020815280171311 0 3.7979184719828694
v -1.4142135623730954 0.2 3.5857864376269051
v -1.6263455967290597 0 3.3736544032709412
v -1.0927389364671172 0 3.6977244466977375
v -1.285575219373079 0.2 3.4679111137620442
v -1.4784115022790407 0 3.2380977808263509
v -0.97507994179677882 0 3.6074415247087144
v -1.1471528727020928 0.2 3.3616959114220171
v -1.3192258036074065 0 3.1159502981353198
v -0.85000000000000075 0 3.5277568135664548
v -1.0000000000000009 0.2 3.2679491924311233
v -1.150000000000001 0 3.0081415712957922
v -0.71845104495918988 0 3.4592767620376956
v -0.84523652348139988 0.2 3.1873844259267008
v -0.97202200200360978 0 2.915492089815706
v -0.58143424365363794 0 3.402522544663956
v -0.68404028665133876 0.2 3.1206147584281836
v -0.78664632964903947 0 2.8387069721924112
v -0.43999237667428504 0 3.3579260953085841
v -0.51763809020504126 0.2 3.0681483474218636
v -0.59528380373579737 0 2.7783705995351431
v -0.29520190203378155 0 3.3258268198792464
v -0.34729635533386066 0.2 3.0303844939755837
v -0.39939080863393972 0 2.7349421680719219
v -0.14816476267101902 0 3.3064690132440324
v -0.1743114854953165 0.2 3.0076106038165089
v -0.20045820831961395 0 2.7087521943889854
v -3.1227462022470619E-16 0 3.3
v -3.6738190614671318E-16 0.2 3
v -4.2248919206872011E-16 0 2.7
v 0.14816476267101841 0 3.3064690132440324
v 0.17431148549531578 0.2 3.0076106038165089
v 0.20045820831961314 0 2.7087521943889854
v 0.29520190203378094 0 3.3258268198792464
v 0.34729635533385994 0.2 3.0303844939755837
v 0.39939080863393889 0 2.7349421680719215
v 0.43999237667428592 0 3.3579260953085841
v 0.51763809020504226 0.2 3.0681483474218636
v 0.59528380373579859 0 2.7783705995351431
v 0.58143424365363583 0 3.4025225446639555
v 0.68404028665133632 0.2 3.1206147584281831
v 0.78664632964903669 0 2.8387069721924107
v 0.71845104495918932 0 3.4592767620376952
v 0.84523652348139922 0.2 3.1873844259267
v 0.972022002003609 0 2.9154920898157055
v 0.8500000000000002 0 3.5277568135664543
v 1.0000000000000002 0.2 3.2679491924311228
v 1.1500000000000001 0 3.0081415712957913
v 0.97507994179677826 0 3.6074415247087139
v 1.1471528727020921 0.2 3.3616959114220162
v 1.3192258036074058 0 3.1159502981353189
v 1.0927389364671167 0 3.6977244466977375
v 1.2855752193730785 0.2 3.4679111137620438
v 1.47841150227904 0 3.2380977808263505
v 1.2020815280171304 0 3.7979184719828689
v 1.4142135623730947 0.2 3.5857864376269046
v 1.6263455967290588 0 3.3736544032709403
v 1.3022755533022623 0 3.907261063532883
v 1.5320888862379556 0.2 3.7144247806269206
v 1.7619022191736489 0 3.5215884977209591
v 1.3925584752912856 0 4.0249200582032207
v 1.6383040885779832 0.2 3.852847127297907
v 1.8840497018646805 0 3.6807741963925933
v 1.4722431864335452 0 4.1499999999999995
v 1.7320508075688768 0.2 3.9999999999999991
v 1.991858428704208 0 3.8499999999999988
v 1.5407232379623044 0 4.28154895504081
v 1.8126155740732994 0.2 4.1547634765186
v 2.084507910184294 0 4.02797799799639
v 1.5974774553360442 0 4.4185657563463634
v 1.8793852415718169 0.2 4.3159597133486631
v 2.1612930278075893 0 4.213353670350962
v 1.6420739046914161 0 4.5600076233257152
v 1.9318516525781366 0.2 4.4823619097949585
v 2.2216294004648569 0 4.4047161962642027
v 1.6741731801207533 0 4.7047980979662167
v 1.9696155060244158 0.2 4.6527036446661372
v 2.2650578319280781 0 4.6006091913660585
v 1.6935309867559674 0 4.8518352373289808
v 1.9923893961834911 0.2 4.8256885145046837
v 2.2912478056110146 0 4.7995417916803857
v 0.3 0 3
v 0.3 0 -1
v 0 0.2 -1
v 0 0.2 3
v -0.3 0 -1
v -0.3 0 3
v 0.16641005886756874 0 1.750384911698647
v -2.8335899411324315 0 -0.24961508830135309
v -3 0.2 0
v 0 0.2 2
v -3.1664100588675685 0 0.24961508830135309
v -0.16641005886756874 0 2.2496150883013533
v 0.16641005886756874 0 2.2496150883013533
v 3.1664100588675685 0 0.24961508830135309
v 3 0.2 0
v 2.8335899411324315 0 -0.24961508830135309
v -0.16641005886756874 0 1.750384911698647
v 0.27854300726557779 0 -1.111417202906231
v -1.7214569927344221 0 -6.1114172029062308
v -2 0.2 -6
v -2.2785430072655779 0 -5.8885827970937692
v -0.27854300726557779 0 -0.88858279709376886
v 0.27854300726557779 0 -0.88858279709376886
v 2.2785430072655779 0 -5.8885827970937692
v 2 0.2 -6
v 1.7214569927344221 0 -6.1114172029062308
v -0.27854300726557779 0 -1.111417202906231
vn -1 0 0
vn -0.99619469809174555 0 -0.087155742747658166
vn 0 1 0
vn 0.99619469809174555 0 0.087155742747658166
vn 1 0 0
vn -0.98480775301220813 0 -0.17364817766693036
vn 0.98480775301220813 0 0.17364817766693036
vn -0.96592582628906831 0 -0.25881904510252074
vn 0.96592582628906831 0 0.25881904510252074
vn -0.93969262078590843 0 -0.34202014332566871
vn 0.93969262078590843 0 0.34202014332566871
vn -0.90630778703664994 0 -0.42261826174069944
vn 0.90630778703664994 0 0.42261826174069944
vn -0.86602540378443871 0 -0.49999999999999994
vn 0.86602540378443871 0 0.49999999999999994
vn -0.81915204428899191 0 -0.57357643635104616
vn 0.81915204428899191 0 0.57357643635104616
vn -0.76604444311897812 0 -0.64278760968653936
vn 0.76604444311897812 0 0.64278760968653936
vn -0.70710678118654757 0 -0.70710678118654746
vn 0.70710678118654757 0 0.70710678118654746
vn -0.64278760968653936 0 -0.766044443118978
vn 0.64278760968653936 0 0.766044443118978
vn -0.57357643635104616 0 -0.8191520442889918
vn 0.57357643635104616 0 0.8191520442889918
vn -0.50000000000000011 0 -0.8660254037844386
vn 0.50000000000000011 0 0.8660254037844386
vn -0.42261826174069944 0 -0.90630778703664994
vn 0.42261826174069944 0 0.90630778703664994
vn -0.34202014332566888 0 -0.93969262078590843
vn 0.34202014332566888 0 0.93969262078590843
vn -0.25881904510252074 0 -0.96592582628906831
vn 0.25881904510252074 0 0.96592582628906831
vn -0.17364817766693044 0 -0.98480775301220813
vn 0.17364817766693044 0 0.98480775301220813
vn -0.087155742747658138 0 -0.99619469809174555
vn 0.087155742747658138 0 0.99619469809174555
vn -6.1230317691118863E-17 0 -1
vn 6.1230317691118863E-17 0 1
vn 0.087155742747658235 0 -0.99619469809174555
vn -0.087155742747658235 0 0.99619469809174555
vn 0.17364817766693033 0 -0.98480775301220813
vn -0.17364817766693033 0 0.98480775301220813
vn 0.25881904510252085 0 -0.96592582628906831
vn -0.25881904510252085 0 0.96592582628906831
vn 0.34202014332566871 0 -0.93969262078590843
vn -0.34202014332566871 0 0.93969262078590843
vn 0.42261826174069933 0 -0.90630778703665
vn -0.42261826174069933 0 0.90630778703665
vn 0.49999999999999983 0 -0.86602540378443882
vn -0.49999999999999983 0 0.86602540378443882
vn 0.57357643635104583 0 -0.819152044288992
vn -0.57357643635104583 0 0.819152044288992
vn 0.64278760968653936 0 -0.766044443118978
vn -0.64278760968653936 0 0.766044443118978
vn 0.70710678118654746 0 -0.70710678118654757
vn -0.70710678118654746 0 0.70710678118654757
vn 0.7660444431189779 0 -0.64278760968653947
vn -0.7660444431189779 0 0.64278760968653947
vn 0.81915204428899158 0 -0.57357643635104638
vn -0.81915204428899158 0 0.57357643635104638
vn 0.86602540378443871 0 -0.49999999999999994
vn -0.86602540378443871 0 0.49999999999999994
vn 0.90630778703664994 0 -0.4226182617406995
vn -0.90630778703664994 0 0.4226182617406995
vn 0.93969262078590843 0 -0.34202014332566893
vn -0.93969262078590843 0 0.34202014332566893
vn 0.9659258262890682 0 -0.258819045102521
vn -0.9659258262890682 0 0.258819045102521
vn 0.98480775301220813 0 -0.1736481776669303
vn -0.98480775301220813 0 0.1736481776669303
vn 0.99619469809174555 0 -0.087155742747658638
vn -0.99619469809174555 0 0.087155742747658638
vn 1 0 -1.2246063538223773E-16
vn -1 0 1.2246063538223773E-16
vn 0.99619469809174555 0 0.087155742747657944
vn -0.99619469809174555 0 -0.087155742747657944
vn 0.984807753012208 0 0.17364817766693047
vn -0.984807753012208 0 -0.17364817766693047
vn 0.96592582628906842 0 0.25881904510252035
vn -0.96592582628906842 0 -0.25881904510252035
vn 0.93969262078590843 0 0.34202014332566866
vn -0.93969262078590843 0 -0.34202014332566866
vn 0.90630778703665 0 0.42261826174069927
vn -0.90630778703665 0 -0.42261826174069927
vn 0.8660254037844386 0 0.50000000000000011
vn -0.8660254037844386 0 -0.50000000000000011
vn 0.819152044288992 0 0.57357643635104583
vn -0.819152044288992 0 -0.57357643635104583
vn 0.70710678118654768 0 0.70710678118654746
vn -0.70710678118654768 0 -0.70710678118654746
vn 0.64278760968653947 0 0.7660444431189779
vn -0.64278760968653947 0 -0.7660444431189779
vn 0.57357643635104638 0 0.81915204428899158
vn -0.57357643635104638 0 -0.81915204428899158
vn 0.50000000000000044 0 0.86602540378443837
vn -0.50000000000000044 0 -0.86602540378443837
vn 0.42261826174069994 0 0.90630778703664971
vn -0.42261826174069994 0 -0.90630778703664971
vn 0.34202014332566938 0 0.93969262078590821
vn -0.34202014332566938 0 -0.93969262078590821
vn 0.25881904510252063 0 0.96592582628906831
vn -0.25881904510252063 0 -0.96592582628906831
vn 0.17364817766693036 0 0.98480775301220813
vn -0.17364817766693036 0 -0.98480775301220813
vn 0.087155742747658249 0 0.99619469809174555
vn -0.087155742747658249 0 -0.99619469809174555
vn 1.8369095307335659E-16 0 1
vn -1.8369095307335659E-16 0 -1
vn -0.087155742747657888 0 0.99619469809174555
vn 0.087155742747657888 0 -0.99619469809174555
vn -0.17364817766692997 0 0.98480775301220813
vn 0.17364817766692997 0 -0.98480775301220813
vn -0.25881904510252113 0 0.9659258262890682
vn 0.25881904510252113 0 -0.9659258262890682
vn -0.34202014332566821 0 0.93969262078590865
vn 0.34202014332566821 0 -0.93969262078590865
vn -0.42261826174069961 0 0.90630778703664994
vn 0.42261826174069961 0 -0.90630778703664994
vn -0.50000000000000011 0 0.8660254037844386
vn 0.50000000000000011 0 -0.8660254037844386
vn -0.57357643635104616 0 0.81915204428899191
vn 0.57357643635104616 0 -0.81915204428899191
vn -0.64278760968653925 0 0.76604444311897812
vn 0.64278760968653925 0 -0.76604444311897812
vn -0.70710678118654735 0 0.70710678118654768
vn 0.70710678118654735 0 -0.70710678118654768
vn -0.76604444311897779 0 0.64278760968653958
vn 0.76604444311897779 0 -0.64278760968653958
vn -0.81915204428899158 0 0.57357643635104649
vn 0.81915204428899158 0 -0.57357643635104649
vn -0.86602540378443837 0 0.50000000000000044
vn 0.86602540378443837 0 -0.50000000000000044
vn -0.90630778703664971 0 0.4226182617407
vn 0.90630778703664971 0 -0.4226182617407
vn -0.93969262078590843 0 0.3420201433256686
vn 0.93969262078590843 0 -0.3420201433256686
vn -0.96592582628906831 0 0.25881904510252068
vn 0.96592582628906831 0 -0.25881904510252068
vn -0.98480775301220791 0 0.17364817766693128
vn 0.98480775301220791 0 -0.17364817766693128
vn -0.99619469809174555 0 0.087155742747658319
vn 0.99619469809174555 0 -0.087155742747658319
vn 4 0 0
vn -4 0 0
vn 2 0 -3
vn -2 0 3
vn 2 0 3
vn -2 0 -3
vn 5 0 -2
vn -5 0 2
vn 5 0 2
vn -5 0 -2
g StickFigure
f 1//1 2//2 3//3 4//3
f 4//3 3//3 5//4 6//5
f 2//2 7//6 8//3 3//3
f 3//3 8//3 9//7 5//4
f 7//6 10//8 11//3 8//3
f 8//3 11//3 12//9 9//7
f 10//8 13//10 14//3 11//3
f 11//3 14//3 15//11 12//9
f 13//10 16//12 17//3 14//3
f 14//3 17//3 18//13 15//11
f 16//12 19//14 20//3 17//3
f 17//3 20//3 21//15 18//13
f 19//14 22//16 23//3 20//3
f 20//3 23//3 24//17 21//15
f 22//16 25//18 26//3 23//3
f 23//3 26//3 27//19 24//17
f 25//18 28//20 29//3 26//3
f 26//3 29//3 30//21 27//19
f 28//20 31//22 32//3 29//3
f 29//3 32//3 33//23 30//21
f 31//22 34//24 35//3 32//3
f 32//3 35//3 36//25 33//23
f 34//24 37//26 38//3 35//3
f 35//3 38//3 39//27 36//25
f 37//26 40//28 41//3 38//3
f 38//3 41//3 42//29 39//27
f 40//28 43//30 44//3 41//3
f 41//3 44//3 45//31 42//29
f 43//30 46//32 47//3 44//3
f 44//3 47//3 48//33 45//31
f 46//32 49//34 50//3 47//3
f 47//3 50//3 51//35 48//33
f 49//34 52//36 53//3 50//3
f 50//3 53//3 54//37 51//35
f 52//36 55//38 56//3 53//3
f 53//3 56//3 57//39 54//37
f 55//38 58//40 59//3 56//3
f 56//3 59//3 60//41 57//39
f 58//40 61//42 62//3 59//3
f 59//3 62//3 63//43 60//41
f 61//42 64//44 65//3 62//3
f 62//3 65//3 66//45 63//43
f 64//44 67//46 68//3 65//3
f 65//3 68//3 69//47 66//45
f 67//46 70//48 71//3 68//3
f 68//3 71//3 72//49 69//47
f 70//48 73//50 74//3 71//3
f 71//3 74//3 75//51 72//49
f 73//50 76//52 77//3 74//3
f 74//3 77//3 78//53 75//51
f 76//52 79//54 80//3 77//3
f 77//3 80//3 81//55 78//53
f 79//54 82//56 83//3 80//3
f 80//3 83//3 84//57 81//55
f 82//56 85//58 86//3 83//3
f 83//3 86//3 87//59 84//57
f 85//58 88//60 89//3 86//3
f 86//3 89//3 90//61 87//59
f 88//60 91//62 92//3 89//3
f 89//3 92//3 93//63 90//61
f 91//62 94//64 95//3 92//3
f 92//3 95//3 96//65 93//63
f 94//64 97//66 98//3 95//3
f 95//3 98//3 99//67 96//65
f 97//66 100//68 101//3 98//3
f 98//3 101//3 102//69 99//67
f 100//68 103//70 104//3 101//3
f 101//3 104//3 105//71 102//69
f 103//70 106//72 107//3 104//3
f 104//3 107//3 108//73 105//71
f 106//72 109//74 110//3 107//3
f 107//3 110//3 111//75 108//73
f 109//74 112//76 113//3 110//3
f 110//3 113//3 114//77 111//75
f 112//76 115//78 116//3 113//3
f 113//3 116//3 117//79 114//77
f 115//78 118//80 119//3 116//3
f 116//3 119//3 120//81 117//79
f 118//80 121//82 122//3 119//3
f 119//3 122//3 123//83 120//81
f 121//82 124//84 125//3 122//3
f 122//3 125//3 126//85 123//83
f 124//84 127//86 128//3 125//3
f 125//3 128//3 129//87 126//85
f 127//86 130//88 131//3 128//3
f 128//3 131//3 132//89 129//87
f 130//88 133//19 134//3 131//3
f 131//3 134//3 135//18 132//89
f 133//19 136//90 137//3 134//3
f 134//3 137//3 138//91 135//18
f 136//90 139//92 140//3 137//3
f 137//3 140//3 141//93 138//91
f 139//92 142//94 143//3 140//3
f 140//3 143//3 144//95 141//93
f 142//94 145//96 146//3 143//3
f 143//3 146//3 147//97 144//95
f 145//96 148//98 149//3 146//3
f 146//3 149//3 150//99 147//97
f 148//98 151//100 152//3 149//3
f 149//3 152//3 153//101 150//99
f 151//100 154//102 155//3 152//3
f 152//3 155//3 156//103 153//101
f 154//102 157//104 158//3 155//3
f 155//3 158//3 159//105 156//103
f 157//104 160//106 161//3 158//3
f 158//3 161//3 162//107 159//105
f 160//106 163//108 164//3 161//3
f 161//3 164//3 165//109 162//107
f 163//108 166//110 167//3 164//3
f 164//3 167//3 168//111 165//109
f 166//110 169//112 170//3 167//3
f 167//3 170//3 171//113 168//111
f 169//112 172//114 173//3 170//3
f 170//3 173//3 174//115 171//113
f 172//114 175//116 176//3 173//3
f 173//3 176//3 177//117 174//115
f 175//116 178//118 179//3 176//3
f 176//3 179//3 180//119 177//117
f 178//118 181//120 182//3 179//3
f 179//3 182//3 183//121 180//119
f 181//120 184//122 185//3 182//3
f 182//3 185//3 186//123 183//121
f 184//122 187//124 188//3 185//3
f 185//3 188//3 189//125 186//123
f 187//124 190//126 191//3 188//3
f 188//3 191//3 192//127 189//125
f 190//126 193//128 194//3 191//3
f 191//3 194//3 195//129 192//127
f 193//128 196//130 197//3 194//3
f 194//3 197//3 198//131 195//129
f 196//130 199//132 200//3 197//3
f 197//3 200//3 201//133 198//131
f 199//132 202//134 203//3 200//3
f 200//3 203//3 204//135 201//133
f 202//134 205//136 206//3 203//3
f 203//3 206//3 207//137 204//135
f 205//136 208//138 209//3 206//3
f 206//3 209//3 210//139 207//137
f 208//138 211//140 212//3 209//3
f 209//3 212//3 213//141 210//139
f 211//140 214//142 215//3 212//3
f 212//3 215//3 216//143 213//141
f 214//142 1//1 4//3 215//3
f 215//3 4//3 6//5 216//143
f 217//144 218//144 219//3 220//3
f 220//3 219//3 221//145 222//145
f 223//146 224//146 225//3 226//3
f 226//3 225//3 227//147 228//147
f 229//148 230//148 231//3 226//3
f 226//3 231//3 232//149 233//149
f 234//150 235//150 236//3 219//3
f 219//3 236//3 237//151 238//151
f 239//152 240//152 241//3 219//3
f 219//3 241//3 242//153 243//153
